PathFileType	4	(X/Y/Z)	Patient4_TMGait_0pt4_02_right_09.trc.trc
DataRate	CameraRate	NumFrames	NumMarkers	Units	OrigDataRate	OrigDataStartFrame	OrigNumFrames
77.348066298343	77.348066298343	4	33	mm	77.348066298343	71	       141
Frame#	Time	Sacral			L.Shoulder			Chest			R.Shoulder			Neck			R.ASIS			L.ASIS			R.Thigh.Superior			R.Thigh.Lateral			R.Thigh.Inferior			R.Patella			L.Thigh.Superior			L.Thigh.Lateral			L.Thigh.Inferior			L.Patella			L.Shank.Superior			L.Shank.Lateral			L.Shank.Inferior			R.Shank.Superior			R.Shank.Lateral			R.Shank.Inferior			R.Heel			R.Midfoot.Superior			R.Midfoot.Lateral			R.Toe			L.Heel			L.Midfoot.Lateral			L.Midfoot.Superior			L.Toe			L.Elbow			L.Wrist			R.Elbow			R.Wrist			
		X1	Y1	Z1	X2	Y2	Z2	X3	Y3	Z3	X4	Y4	Z4	X5	Y5	Z5	X6	Y6	Z6	X7	Y7	Z7	X8	Y8	Z8	X9	Y9	Z9	X10	Y10	Z10	X11	Y11	Z11	X12	Y12	Z12	X13	Y13	Z13	X14	Y14	Z14	X15	Y15	Z15	X16	Y16	Z16	X17	Y17	Z17	X18	Y18	Z18	X19	Y19	Z19	X20	Y20	Z20	X21	Y21	Z21	X22	Y22	Z22	X23	Y23	Z23	X24	Y24	Z24	X25	Y25	Z25	X26	Y26	Z26	X27	Y27	Z27	X28	Y28	Z28	X29	Y29	Z29	X30	Y30	Z30	X31	Y31	Z31	X32	Y32	Z32	X33	Y33	Z33	

71	12.355000000000	907.582048404652	1005.998325467933	514.466952464257	1066.699373693523	1425.244255569626	299.663008049868	1192.911933154381	1356.743474546885	443.276353262702	1140.322993689647	1439.970204594233	625.212219755022	1093.569311013628	1491.620085883873	450.706584661320	1147.524988623815	938.019454209722	600.910428669958	1098.663232148090	958.845524314060	329.612017141614	1154.072260990497	726.781831951171	568.099547912070	1064.469367577798	626.887432822203	638.396568348200	1121.356633008266	566.328196660653	550.968318360235	1107.983533050530	479.943271849838	556.656748729402	1174.824632380515	768.120516551646	353.245585518345	1111.483028557621	640.835332377782	285.948525264438	1216.378883920269	579.479840073148	340.140119212468	1234.905341983057	511.365391709137	339.857059290637	1213.779723966818	438.650383159450	329.721717357629	1135.325957815102	315.509911276518	280.008644718633	1213.858354359040	208.741921870135	332.925518068449	1071.294283293922	394.123128342745	566.209839767244	994.455423260049	298.373298865494	634.600891911329	1018.165936733014	200.684783730224	566.928675112308	868.721594430421	42.284022479690	545.787623805370	1041.250750941792	96.144877245403	573.094064987937	954.889789564177	36.947181780904	617.230014633553	1162.664877765517	43.328322166350	596.764997999703	1114.344842328658	41.406160386291	373.416352559625	1185.618853405607	39.555690394155	290.871649930498	1265.384423843134	107.196287756816	311.776968860412	1394.224835760584	63.392415472204	280.464913553971	956.313247897853	1083.120604555009	210.515969321182	981.537144161108	824.947378036396	175.405469060383	1224.232308943607	1105.514574596121	738.830252682146	1445.094056501424	1083.806484971387	620.345209477331	
72	12.367928571429	908.636256917648	1005.269403055512	511.863593161440	1067.076760694541	1424.251027671666	296.784651125258	1193.292642395701	1356.279131706302	440.695342824092	1140.069995839786	1439.594630457545	622.478822439198	1093.303785872573	1490.941679666703	447.827828945240	1148.398981291226	937.426085162270	599.540393606293	1100.513368344198	957.750549686354	328.083888009488	1154.706135903021	725.858813776958	567.263867691400	1064.153010852706	626.155359704917	636.995371580657	1121.206395813019	565.231730221115	549.987686490007	1107.393392232658	478.434867419287	555.563768469717	1176.015650585043	766.016310962081	352.221638496742	1110.885817834180	639.139967762138	285.910428345099	1215.391767769748	577.197167678340	340.149703292715	1232.428016769776	508.263778879142	340.548386964389	1210.643729644901	435.484520683818	330.298866659069	1130.426607453175	313.410736512806	280.519080621429	1206.744774118132	205.502816679843	334.294851671998	1069.521491674258	393.070966347589	565.150991734591	991.705335351400	298.367546037973	634.002090245912	1014.222038182882	200.235739410049	566.516952480577	863.548502535692	42.459926865647	545.855127558682	1036.131967373881	96.112388742770	573.070432427592	949.721521870877	36.981641863589	617.233255180403	1157.496689317172	43.067335320216	596.860038628699	1103.831763710354	40.321118316356	374.341876796525	1175.359642446417	37.812135961064	291.914178583191	1256.359620444645	103.587090962503	313.901767551790	1384.811710116874	57.526374415723	282.695764252495	956.958760158371	1081.904996136529	208.265047782448	983.340404095507	823.799068812693	173.177549298872	1223.714489848693	1104.632537622535	735.444590898355	1442.891909246705	1081.099795414413	613.964644927814	
73	12.380857142857	909.651206939493	1004.696647208716	509.255207670283	1067.730194899792	1423.262903677095	293.735795828150	1193.845495776207	1355.814680374483	438.025971881571	1140.032498056408	1439.348982464090	619.595358159687	1093.215896336872	1490.343587163852	444.747231497933	1149.226173277301	936.850229846402	598.032736659409	1102.238764983264	956.868854603494	326.493519433408	1155.632253058982	725.019459188710	566.229295988059	1064.249779532709	625.412521782858	635.357805055139	1121.528474707652	564.181755946630	548.763062512650	1107.386372229827	476.845893823149	554.283019226753	1176.945182467537	764.102093913137	351.279497806521	1110.410694284066	637.886731064628	285.524446038618	1214.283633853149	575.268700913044	340.198403058180	1229.988288036476	505.677222193552	341.077324806091	1207.746943531245	432.873440489556	330.610503494752	1126.275334035159	311.685919470637	280.541858587497	1200.508322023355	202.875654342534	335.304820987105	1068.167011451186	392.013605236113	563.913751442632	989.265217146915	298.484358188789	633.247252350378	1010.475589566519	199.870992408413	566.027602970410	858.405117202045	42.877018472486	545.934021151580	1031.096157669847	96.129794755805	573.030907470100	944.599557522347	37.134048983221	617.225970870269	1152.368635333813	42.723910833710	596.967597475465	1094.678766758090	39.466412386863	374.815208648783	1166.512521821027	36.567156639401	292.567683418787	1248.400533530500	100.833337881892	315.641495240921	1376.628382509245	53.047605777649	284.645252961093	958.212660026129	1080.593249823422	205.726145616159	985.849215596163	822.559236295112	170.723462645807	1222.684939906603	1103.808829998510	732.386192124036	1440.124508343443	1077.308330237486	608.081977566417	
74	12.393785714286	910.585885006402	1004.326888494974	506.683926547705	1068.632279361601	1422.335229721527	290.565723936365	1194.560986872503	1355.380054810499	435.289111218155	1140.251528729903	1439.274359797107	616.589027573846	1093.323181456709	1489.870006657138	441.508818497077	1149.971060430902	936.343506065125	596.354695392634	1103.751316555038	956.266786124128	324.800482531166	1156.769419167863	724.318728913819	564.937918046014	1064.751606167249	624.706866251496	633.496304880222	1122.313924683739	563.228127781057	547.301573201606	1107.983751864462	475.215286231357	552.867740794112	1177.597744982378	762.529530046223	350.347315583424	1110.103435989675	637.120262849980	284.768136628427	1213.132693342115	573.793849423495	340.182962295733	1227.680388345257	503.691988574136	341.357642533524	1205.162308392171	430.873150505993	330.632867677921	1122.903588865655	310.394550627924	280.104645240719	1195.175230480235	200.900405098287	335.952004156780	1067.257277110309	391.002629635866	562.550262716650	987.142589514758	298.778890667394	632.361627884549	1006.951835212671	199.646524552138	565.491733963391	853.303617846201	43.632704655774	546.027561962807	1026.175840505832	96.214967800516	572.987184856637	939.534833835640	37.452660976728	617.213142730192	1147.288383428357	42.294095388114	597.085295249595	1086.909765339160	38.870448675235	374.936806561134	1159.042665903841	35.793576831307	292.888686289326	1241.514270276725	98.923898464851	316.941188276695	1369.643899965468	49.898168661241	286.173852026838	960.067882972103	1079.250086495912	202.918741794149	989.062301696928	821.291968576797	168.062693821271	1221.146598083021	1103.081572118223	729.649768575919	1436.789218750239	1072.411743535535	602.776200454617	
